<?xml version="1.0" standalone="no"?>
<!DOCTYPE svg PUBLIC "-//W3C//DTD SVG 20010904//EN"
 "http://www.w3.org/TR/2001/REC-SVG-20010904/DTD/svg10.dtd">
<svg version="1.0" xmlns="http://www.w3.org/2000/svg"
 width="700.000000pt" height="700.000000pt" viewBox="0 0 700.000000 700.000000"
 preserveAspectRatio="xMidYMid meet">
<metadata>
Created by potrace 1.11, written by Peter Selinger 2001-2013
</metadata>
<g transform="translate(0.000000,700.000000) scale(0.100000,-0.100000)"
fill="#000000" stroke="none">
<path d="M3280 6699 c-36 -4 -94 -10 -130 -14 -173 -19 -522 -112 -655 -175
-11 -5 -60 -27 -108 -49 -524 -238 -999 -707 -1251 -1236 -91 -191 -182 -458
-210 -620 -3 -16 -7 -41 -10 -55 -2 -14 -7 -47 -11 -73 -4 -27 -8 -57 -10 -68
-2 -10 -7 -56 -11 -102 -9 -107 -12 -2310 -3 -2362 4 -22 10 -58 13 -80 9 -58
34 -130 72 -207 104 -214 288 -373 516 -448 118 -39 170 -42 653 -41 259 0
475 0 480 1 7 0 10 394 10 1165 l0 1165 -582 0 -583 0 0 28 c-3 195 1 679 5
717 24 227 49 341 115 530 35 99 137 318 151 323 5 2 9 8 9 13 0 15 65 113
133 204 386 508 977 805 1612 808 81 1 263 -9 300 -17 11 -2 40 -7 65 -11 82
-12 264 -63 366 -100 513 -192 933 -590 1154 -1095 91 -208 144 -417 165 -658
4 -43 7 -449 6 -654 l-1 -88 -582 0 -583 0 0 -1165 0 -1165 30 -1 c16 0 278 0
580 0 303 -1 552 -5 555 -9 3 -4 4 -70 2 -147 l-3 -138 -1019 0 -1020 0 0
-292 0 -292 913 0 c501 1 935 5 962 10 88 15 105 19 173 44 313 116 531 391
570 720 8 74 7 3102 -2 3229 -4 61 -9 112 -10 115 -2 3 -6 29 -10 56 -21 168
-80 394 -153 578 -99 254 -290 571 -452 752 -49 55 -227 232 -276 276 -249
220 -612 421 -945 523 -90 27 -240 63 -299 72 -20 3 -58 9 -86 14 -129 23
-473 34 -605 19z"/>
</g>
</svg>
